<svg xmlns="http://www.w3.org/2000/svg" version="1.1" xmlns:xlink="http://www.w3.org/1999/xlink" xmlns:svgjs="http://svgjs.dev/svgjs" width="2000" height="1000" preserveAspectRatio="none" viewBox="0 0 2000 1000"><g clip-path="url(&quot;#SvgjsClipPath1072&quot;)" fill="none"><rect width="2000" height="1000" x="0" y="0" fill="rgba(24, 24, 24, 1)"></rect><circle r="166.665" cx="-23.54" cy="80.17" stroke="#ededed" stroke-opacity="0.05" stroke-width="2"></circle><circle r="166.665" cx="728.14" cy="571.89" stroke="#ededed" stroke-opacity="0.05" stroke-width="2"></circle><circle r="166.665" cx="1436.01" cy="1388.34" stroke="#ededed" stroke-opacity="0.05" stroke-width="2"></circle><circle r="95.94" cx="9.88" cy="231.45" stroke="#ededed" stroke-opacity="0.05" stroke-width="2"></circle><circle r="231.185" cx="440.66" cy="79.13" stroke="#ededed" stroke-opacity="0.05" stroke-width="2"></circle><circle r="315.36" cx="570.06" cy="554.37" stroke="#ededed" stroke-opacity="0.05" stroke-width="2"></circle><circle r="268.685" cx="422.18" cy="808.06" stroke="#ededed" stroke-opacity="0.05" stroke-width="2"></circle><circle r="197.595" cx="1759.16" cy="90.21" stroke="#ededed" stroke-opacity="0.05" stroke-width="2"></circle><circle r="264.165" cx="1335.61" cy="107.25" stroke="#ededed" stroke-opacity="0.05" stroke-width="2"></circle><circle r="202.72" cx="1101.5" cy="690.96" stroke="#ededed" stroke-opacity="0.05" stroke-width="2"></circle><circle r="306.115" cx="1786.42" cy="374.78" stroke="#ededed" stroke-opacity="0.05" stroke-width="2"></circle><circle r="112.19" cx="1687.53" cy="778.42" stroke="#ededed" stroke-opacity="0.05" stroke-width="2"></circle><circle r="300.74" cx="1468.99" cy="224.99" stroke="#ededed" stroke-opacity="0.05" stroke-width="2"></circle><circle r="332.83" cx="1796.77" cy="602.02" stroke="#ededed" stroke-opacity="0.05" stroke-width="2"></circle><circle r="316.96" cx="463.4" cy="306.88" stroke="#ededed" stroke-opacity="0.05" stroke-width="2"></circle><circle r="168.65" cx="1365.42" cy="776.61" stroke="#ededed" stroke-opacity="0.05" stroke-width="2"></circle><circle r="280.295" cx="519.74" cy="782.74" stroke="#ededed" stroke-opacity="0.05" stroke-width="2"></circle><circle r="146.715" cx="1332.14" cy="521.07" stroke="#ededed" stroke-opacity="0.05" stroke-width="2"></circle></g><defs><clipPath id="SvgjsClipPath1072"><rect width="2000" height="1000" x="0" y="0"></rect></clipPath></defs></svg>